<?xml version="1.0" encoding="iso-8859-1"?>
<!-- Generator: Adobe Illustrator 19.0.0, SVG Export Plug-In . SVG Version: 6.00 Build 0)  -->
<svg version="1.1" id="Layer_1" xmlns="http://www.w3.org/2000/svg" xmlns:xlink="http://www.w3.org/1999/xlink" x="0px" y="0px"
	 viewBox="0 0 512 512" style="enable-background:new 0 0 512 512;" xml:space="preserve">
<g>
	<polygon style="fill:#FFFFFF;" points="158.557,72.797 201.681,80.663 275.805,227.421 189.754,203.427 	"/>
	<path style="fill:#FFFFFF;" d="M95.313,257.606c-25.542-12.207-61.894-38.784-70.249-62.231h51.945
		c2.583,1.292,5.178,2.362,7.471,2.828l229.702,64.07v67.398c-35.305-9.123-121.472-31.86-160.419-46.417
		C139.148,277.888,95.628,257.745,95.313,257.606z"/>
</g>
<g>
	<path style="fill:#72C6EF;" d="M478.545,51.2c-2.618,0-5.085,0.512-7.412,1.327c0.023-0.454,0.14-0.873,0.14-1.327
		c0-15.43-13.021-27.927-29.091-27.927S413.091,35.77,413.091,51.2c0,0.454,0.116,0.873,0.14,1.327
		c-2.327-0.815-4.794-1.327-7.412-1.327C393.763,51.2,384,60.579,384,72.145s9.763,20.945,21.818,20.945h72.727
		c12.044,0,21.818-9.379,21.818-20.945S490.589,51.2,478.545,51.2z"/>
	<path style="fill:#72C6EF;" d="M397.091,74.473c-2.618,0-5.085,0.512-7.412,1.327c0.023-0.454,0.14-0.873,0.14-1.327
		c0-15.418-13.021-27.927-29.091-27.927s-29.091,12.509-29.091,27.927c0,0.454,0.116,0.873,0.14,1.327
		c-2.327-0.815-4.794-1.327-7.412-1.327c-12.055,0-21.818,9.379-21.818,20.945s9.763,20.945,21.818,20.945h72.727
		c12.044,0,21.818-9.379,21.818-20.945S409.135,74.473,397.091,74.473z"/>
</g>
<path style="fill:#00384E;" d="M500.364,488.727H11.636C5.213,488.727,0,483.526,0,477.091c0-6.435,5.213-11.636,11.636-11.636
	h488.727c6.423,0,11.636,5.201,11.636,11.636C512,483.526,506.787,488.727,500.364,488.727z"/>
<g>
	<path style="fill:#FAA85F;" d="M79.825,183.738H11.636V93.091l35.84,5.004l21.295,69.12
		C70.051,174.08,74.124,180.131,79.825,183.738z"/>
	<path style="fill:#FAA85F;" d="M453.702,346.88c-3.607,27.927-80.058,5.818-117.527,0.465c0,0-3.84-0.931-10.356-2.676V253.44
		l0.815,0.233C361.193,262.749,458.007,313.6,453.702,346.88z"/>
</g>
<path style="fill:#00384E;" d="M328.96,242.234h-0.012l-22.889-6.388c-0.058-0.14-0.047-0.291-0.116-0.419L219.846,65.001
	c-1.641-3.247-4.713-5.551-8.297-6.191l-66.362-12.102c-3.84-0.745-7.82,0.593-10.531,3.444c-2.7,2.851-3.782,6.877-2.874,10.705
	l32.337,135.424l-74.089-20.655c-1.292-0.268-2.665-0.849-3.875-1.641c-0.012-0.023-0.035-0.023-0.047-0.035
	c-0.023-0.012-0.035-0.047-0.07-0.058c-2.967-1.873-5.143-5.167-5.83-8.82c-0.081-0.431-0.186-0.861-0.314-1.28l-21.295-69.12
	c-1.338-4.317-5.039-7.482-9.519-8.111l-35.84-5.004c-3.316-0.489-6.703,0.535-9.239,2.758C1.455,86.528,0,89.728,0,93.091v90.647
	v2.525c0.291,40.913,55.913,78.301,85.399,92.393c1.827,0.849,44.835,20.748,60.288,26.415
	c47.86,17.897,164.166,47.558,177.268,50.886c0.023,0,0.035,0,0.058,0.012c6.54,1.745,10.426,2.688,11.508,2.897
	c7.494,1.071,16.57,2.828,26.321,4.701c25.728,4.98,47.546,8.797,64.652,8.797c12.567,0,22.586-2.071,29.743-7.238
	c5.655-4.084,9.123-9.891,10.007-16.756C471.215,302.243,358.179,249.926,328.96,242.234z M158.557,72.797l43.124,7.866
	l74.135,146.758l-86.063-23.994L158.557,72.797z M23.273,106.461l15.267,2.129l18.932,61.475c0.14,0.687,0.303,1.361,0.489,2.036
	H23.273V106.461z M95.313,257.606c-25.542-12.207-61.894-38.784-70.249-62.231h51.945c2.583,1.292,5.178,2.362,7.471,2.828
	l229.702,64.07v67.398c-35.305-9.123-121.472-31.86-160.419-46.417C139.148,277.888,95.628,257.745,95.313,257.606z
	 M441.612,346.263c-10.054,7.273-53.178-1.059-76.358-5.539c-10.159-1.967-19.631-3.793-26.333-4.689
	c-0.023-0.012-0.535-0.128-1.466-0.361v-66.467c51.433,18.257,106.531,62.08,104.716,76.183L441.612,346.263z"/>
<g>
</g>
<g>
</g>
<g>
</g>
<g>
</g>
<g>
</g>
<g>
</g>
<g>
</g>
<g>
</g>
<g>
</g>
<g>
</g>
<g>
</g>
<g>
</g>
<g>
</g>
<g>
</g>
<g>
</g>
</svg>
